<svg xmlns="http://www.w3.org/2000/svg" width="28" height="21" viewBox="0 0 28 21">
  <path id="Shape_7" data-name="Shape 7" d="M530.693,40.183l-9.656-9.656,7.146-7.146,2.532-2.532a1.7,1.7,0,0,1,.285.9v17.5A1.7,1.7,0,0,1,530.693,40.183Zm-3.129-17.42L524.3,26.022l-6.237,6.237-1.095,1.095L506.436,22.817l-1.75-1.75-.8-.8A1.7,1.7,0,0,1,504.75,20h24.5a1.7,1.7,0,0,1,.835.241l-.881.881Zm-23.5-1.076,8.814,8.814-9.618,9.618A1.7,1.7,0,0,1,503,39.25V21.75a1.7,1.7,0,0,1,.263-.868l.8.8Zm9.432,9.433.369.369.132.132,1.2,1.2,1.75,1.75.073-.073.018.018,1.641-1.64,1.732-1.732,9.635,9.635a1.706,1.706,0,0,1-.8.22h-24.5a1.7,1.7,0,0,1-.868-.263Z" transform="translate(-503 -20)" fill="#b99403"/>
</svg>
