<svg xmlns="http://www.w3.org/2000/svg" width="22.022" height="21.973" viewBox="0 0 22.022 21.973">
  <path id="Shape_6" data-name="Shape 6" d="M382.162,22.827a2.83,2.83,0,0,0,4.006,4l1.621-1.618a5.589,5.589,0,0,1,.21,1.446,5.594,5.594,0,0,1-7.133,5.439c-.016.016-.021.039-.037.055l-10.016,10a2.83,2.83,0,1,1-4.006-4l10.016-10c.017-.017.04-.022.058-.038a5.588,5.588,0,0,1-.214-1.458,5.6,5.6,0,0,1,7.115-5.445Zm-13.285,16.55a.707.707,0,1,0,.708.707A.708.708,0,0,0,368.877,39.377Z" transform="translate(-365.978 -21)" fill="#b99403"/>
</svg>
