<svg xmlns="http://www.w3.org/2000/svg" width="158.045" height="132.993" viewBox="0 0 158.045 132.993">
  <path id="twitter" d="M243.522,885.313,228.7,900.625v2.553a33.964,33.964,0,0,1-1.067,8.068c-.345,21.066-6.838,49-33.505,71.051-52.456,43.371-108.656,5.1-108.656,5.1,44.45,0,44.45-15.314,44.45-15.314-9.878,0-29.633-20.417-29.633-20.417,4.939,5.1,14.817,0,14.817,0-24.695-15.314-24.695-30.627-24.695-30.627,4.939,5.1,14.817,0,14.817,0C80.537,900.625,95.354,875.1,95.354,875.1c4.939,25.522,69.145,35.731,69.145,35.731l.817-.422a62.5,62.5,0,0,1-.817-9.787C164.5,882.3,178.872,870,196.6,870a31.483,31.483,0,0,1,24.281,11.7l2.883-1.49L238.583,870,228.7,890.417Z" transform="translate(-85.476 -869.999)" fill="rgba(188,125,0,0.9)"/>
</svg>
